<svg width="54" height="54" viewBox="0 0 54 54" fill="none" xmlns="http://www.w3.org/2000/svg">
<path d="M26.6836 0C12.618 0 1.09496 10.9151 0 24.7867L14.3516 30.7582C15.5676 29.9213 17.0365 29.4309 18.617 29.4309C18.7586 29.4309 18.8996 29.437 19.0395 29.4438L25.4217 20.1338C25.4217 20.0893 25.4217 20.046 25.4217 20.0023C25.4217 14.3985 29.951 9.83931 35.5198 9.83931C41.0879 9.83931 45.6172 14.3985 45.6172 20.0023C45.6172 25.6059 41.0879 30.1655 35.5198 30.1655C35.4428 30.1655 35.3667 30.1655 35.2904 30.1595L26.1879 36.6959C26.1939 36.8147 26.1971 36.936 26.1971 37.0565C26.1971 41.2636 22.797 44.6845 18.6177 44.6845C14.9489 44.6845 11.8812 42.0492 11.1865 38.5592L0.922427 34.2914C4.10014 45.6026 14.4259 53.8952 26.6836 53.8952C41.4721 53.8952 53.46 41.83 53.46 26.9485C53.46 12.0647 41.4716 0 26.6836 0Z" fill="#0E1013"/>
<path d="M16.78 40.889L13.4907 39.5214C14.0737 40.7427 15.0821 41.7655 16.4211 42.3271C19.3154 43.5406 22.6525 42.1584 23.8588 39.2429C24.443 37.8333 24.4466 36.2769 23.8673 34.8636C23.2892 33.4498 22.1984 32.3471 20.796 31.7588C19.4044 31.1758 17.9136 31.1969 16.6038 31.6946L20.0012 33.1086C22.1362 34.0041 23.1458 36.4713 22.256 38.6199C21.3681 40.769 18.9147 41.7849 16.78 40.889Z" fill="#0E1013"/>
<path d="M42.2469 20.0019C42.2469 16.2685 39.2291 13.2305 35.5185 13.2305C31.8088 13.2305 28.79 16.2685 28.79 20.0019C28.79 23.7363 31.8088 26.7729 35.5185 26.7729C39.2291 26.7729 42.2469 23.7356 42.2469 20.0019ZM30.4752 19.9905C30.4752 17.1809 32.7385 14.9038 35.5301 14.9038C38.3217 14.9038 40.5848 17.1809 40.5848 19.9905C40.5848 22.8001 38.3217 25.077 35.5301 25.077C32.7385 25.077 30.4752 22.7993 30.4752 19.9905Z" fill="#0E1013"/>
</svg>
